<svg width="16" height="16" viewBox="0 0 16 16" fill="none" xmlns="http://www.w3.org/2000/svg">
<path d="M12.2526 0H3.74761C3.02592 0 2.44067 0.585 2.44067 1.30694V14.6931C2.44067 15.415 3.02592 16 3.74761 16H12.2526C12.9743 16 13.5593 15.415 13.5593 14.6931V1.30694C13.5593 0.585 12.9743 0 12.2526 0ZM6.32467 6.45234L6.60061 5.89222L6.87708 6.45234L7.4952 6.54238L7.04792 6.97828L7.15358 7.59375L6.60064 7.30322L6.04821 7.59375L6.15358 6.97825L5.70655 6.54234L6.32467 6.45234ZM3.72405 2.18272C3.7243 1.76987 4.05877 1.43509 4.47192 1.43509H5.68139V1.71978H4.91311L4.00899 2.62419V3.39219H3.72405V2.18272ZM4.47139 14.5649C4.05877 14.5646 3.7238 14.2301 3.72405 13.817L3.7238 12.6075H4.00849L4.00877 13.3758L4.91314 14.2802H5.68117L5.68142 14.5649H4.47139ZM7.93352 10.6417C6.72986 10.6417 5.71105 9.85594 5.3583 8.77013C5.70549 8.94838 6.09771 9.05087 6.51483 9.05087C7.91577 9.05087 9.05136 7.91528 9.05136 6.51431C9.05136 6.09747 8.94861 5.70525 8.77064 5.35806C9.85646 5.71109 10.6419 6.72988 10.6419 7.93328C10.6419 9.429 9.4293 10.6417 7.93352 10.6417ZM12.2762 13.817C12.276 14.2301 11.9417 14.5646 11.5286 14.5646H10.3189V14.2802H11.0871L11.9913 13.3755V12.6075H12.2762V13.817H12.2762ZM11.9918 3.39222L11.9915 2.62397L11.0874 1.71956H10.3191L10.3189 1.43488H11.5286C11.9417 1.43513 12.2765 1.76962 12.2762 2.18275L12.2765 3.39225L11.9918 3.39222Z" fill="#7A6F6F"/>
</svg>
